<svg xmlns="http://www.w3.org/2000/svg" viewBox="0 0 78.11 90.61"><defs><style>.cls-1{fill:none;stroke:#000;stroke-miterlimit:10;}</style></defs><g id="Layer_2" data-name="Layer 2"><g id="Layer_1-2" data-name="Layer 1"><circle class="cls-1" cx="38.65" cy="27" r="26.5"/><path d="M17.52,52.71l1,13.7H15l-.17-5.1a51.74,51.74,0,0,1,.05-5.6L13,65H9.51l-2-9.28a51.1,51.1,0,0,1,.16,5.6l-.16,5.1H3.93l1-13.7H9.47l1.84,9.09L13,52.71Z"/><path d="M26.07,55.59a3.48,3.48,0,0,1,1.07.18l-.57,3.39a3.15,3.15,0,0,0-.95-.16,1.6,1.6,0,0,0-1.35.6,4.53,4.53,0,0,0-.72,1.82v5H20V55.9H23.1l.31,2a3.4,3.4,0,0,1,1.06-1.68A2.4,2.4,0,0,1,26.07,55.59Z"/><path d="M36.05,63.18a1.87,1.87,0,0,0,.15.85.92.92,0,0,0,.52.41L36,66.71a4.15,4.15,0,0,1-1.65-.42,2.46,2.46,0,0,1-1-1.06,3.54,3.54,0,0,1-3.18,1.54,3.42,3.42,0,0,1-2.49-.92,3.19,3.19,0,0,1-.94-2.38A3.09,3.09,0,0,1,28,60.81a6.31,6.31,0,0,1,3.7-.92h.91v-.36a1.46,1.46,0,0,0-.36-1.15A1.94,1.94,0,0,0,31,58.07a9,9,0,0,0-2.74.55l-.77-2.26a10.56,10.56,0,0,1,4-.81,5.17,5.17,0,0,1,3.45.94,3.55,3.55,0,0,1,1.09,2.86ZM31.22,64.3a1.57,1.57,0,0,0,1.4-.84v-1.7H32q-1.86,0-1.86,1.38a1.28,1.28,0,0,0,.28.85A1,1,0,0,0,31.22,64.3Z"/><path d="M50.09,55.55a2.52,2.52,0,0,1,2,.84,3.34,3.34,0,0,1,.75,2.31v7.71H49.3V59.33c0-.81-.24-1.22-.71-1.22s-1,.4-1.34,1.2v7.1H43.74V59.33c0-.81-.24-1.22-.71-1.22s-1,.4-1.34,1.2v7.1H38.18V55.9h3l.26,1.17a3.72,3.72,0,0,1,3.06-1.52A2.37,2.37,0,0,1,47,57.13,3.92,3.92,0,0,1,50.09,55.55Z"/><path d="M59.49,55.55A5,5,0,0,1,63.35,57a5.74,5.74,0,0,1,1.4,4.14,5.75,5.75,0,0,1-1.4,4.08,5.72,5.72,0,0,1-7.72,0,5.77,5.77,0,0,1-1.4-4.14,5.75,5.75,0,0,1,1.41-4.08A5,5,0,0,1,59.49,55.55Zm1.25,3.27a1.43,1.43,0,0,0-2.5,0,5,5,0,0,0-.41,2.32,5,5,0,0,0,.41,2.35,1.34,1.34,0,0,0,1.25.72,1.32,1.32,0,0,0,1.25-.74,5,5,0,0,0,.41-2.31A5.09,5.09,0,0,0,60.74,58.82Z"/><path d="M72.31,55.59a3.42,3.42,0,0,1,1.06.18l-.57,3.39a3.1,3.1,0,0,0-1-.16,1.6,1.6,0,0,0-1.35.6,4.53,4.53,0,0,0-.72,1.82v5H66.27V55.9h3.06l.31,2a3.47,3.47,0,0,1,1.06-1.68A2.43,2.43,0,0,1,72.31,55.59Z"/><path d="M9.45,66.36a6.8,6.8,0,0,1,4.89,1.81L12.71,70.1a4.73,4.73,0,0,0-3-1.12c-1.11,0-1.66.39-1.66,1.16a1,1,0,0,0,.5.9,10.54,10.54,0,0,0,2.07.84,7.21,7.21,0,0,1,3.08,1.68,4.29,4.29,0,0,1-.52,6,6.34,6.34,0,0,1-4.1,1.22,7.44,7.44,0,0,1-5.35-2l1.8-2A5.33,5.33,0,0,0,9,78.12a2.26,2.26,0,0,0,1.44-.4,1.41,1.41,0,0,0,0-2.14,6.53,6.53,0,0,0-1.89-.81A7.46,7.46,0,0,1,5.27,73a3.66,3.66,0,0,1-.94-2.58,3.56,3.56,0,0,1,1.44-3A5.84,5.84,0,0,1,9.45,66.36Z"/><path d="M24.83,77.18A1.87,1.87,0,0,0,25,78a.92.92,0,0,0,.52.41l-.71,2.27a4.06,4.06,0,0,1-1.64-.42,2.42,2.42,0,0,1-1-1.06,3.53,3.53,0,0,1-3.17,1.54,3.44,3.44,0,0,1-2.5-.92,3.19,3.19,0,0,1-.93-2.38,3.08,3.08,0,0,1,1.28-2.66,6.31,6.31,0,0,1,3.7-.92h.91v-.36a1.5,1.5,0,0,0-.35-1.15,2,2,0,0,0-1.29-.31,9,9,0,0,0-2.74.55l-.77-2.26a10.61,10.61,0,0,1,4.05-.81,5.21,5.21,0,0,1,3.45.94,3.58,3.58,0,0,1,1.08,2.86ZM20,78.3a1.57,1.57,0,0,0,1.4-.84v-1.7h-.59c-1.24,0-1.85.46-1.85,1.38a1.27,1.27,0,0,0,.27.85A1,1,0,0,0,20,78.3Z"/><path d="M33,69.59a3.48,3.48,0,0,1,1.07.18l-.57,3.39a3.15,3.15,0,0,0-1-.16,1.6,1.6,0,0,0-1.35.6,4.53,4.53,0,0,0-.72,1.82v5H27V69.9H30l.31,2a3.4,3.4,0,0,1,1.06-1.68A2.4,2.4,0,0,1,33,69.59Z"/><path d="M43,77.18a1.87,1.87,0,0,0,.15.85.92.92,0,0,0,.52.41l-.71,2.27a4.15,4.15,0,0,1-1.65-.42,2.46,2.46,0,0,1-1-1.06,3.54,3.54,0,0,1-3.18,1.54,3.42,3.42,0,0,1-2.49-.92,3.19,3.19,0,0,1-.94-2.38,3.09,3.09,0,0,1,1.29-2.66,6.31,6.31,0,0,1,3.7-.92h.91v-.36a1.46,1.46,0,0,0-.36-1.15,1.94,1.94,0,0,0-1.28-.31,9,9,0,0,0-2.74.55l-.77-2.26a10.56,10.56,0,0,1,4-.81,5.17,5.17,0,0,1,3.45.94A3.55,3.55,0,0,1,43,73.35ZM38.14,78.3a1.57,1.57,0,0,0,1.4-.84v-1.7H39q-1.86,0-1.86,1.38a1.28,1.28,0,0,0,.28.85A1,1,0,0,0,38.14,78.3Z"/><path d="M50.91,77.71l1.17,2.19a5.1,5.1,0,0,1-3,.87q-3.64,0-3.65-4V72.31H44.07V69.9h1.36V67.68l3.51-.42V69.9h2.39L51,72.31h-2v4.4c0,.86.31,1.3.91,1.3A2.05,2.05,0,0,0,50.91,77.71Z"/><path d="M57.2,69.55A5,5,0,0,1,61.07,71a6.71,6.71,0,0,1,0,8.22,5,5,0,0,1-3.86,1.52,5.08,5.08,0,0,1-3.86-1.48,5.81,5.81,0,0,1-1.4-4.14,5.75,5.75,0,0,1,1.41-4.08A5,5,0,0,1,57.2,69.55Zm1.26,3.27a1.44,1.44,0,0,0-2.51,0,7,7,0,0,0,0,4.67,1.44,1.44,0,0,0,2.51,0,5,5,0,0,0,.4-2.31A5.11,5.11,0,0,0,58.46,72.82Z"/><path d="M73.23,69.9,70,80.41H65.86L62.59,69.9h3.8L68,77.83l1.69-7.93Z"/><path d="M4.2,84.19l.41,4.61h-.5l-.24-2.69c0-.43-.06-.9-.07-1.4L2.51,88.23H2L.78,84.71c0,.5,0,1-.07,1.4L.49,88.8H0l.41-4.61h.65l1.21,3.52,1.27-3.52Z"/><path d="M8.05,84.09a1.41,1.41,0,0,1,1.26.63,3.74,3.74,0,0,1,0,3.52A1.47,1.47,0,0,1,8,88.9a1.57,1.57,0,0,1-1.31-.64v2.28l-.51.07V84.19h.44l0,.67A1.69,1.69,0,0,1,8.05,84.09Zm-.18,4.38c.87,0,1.31-.67,1.31-2s-.41-2-1.23-2a1.6,1.6,0,0,0-1.29.79v2.45A1.39,1.39,0,0,0,7.87,88.47Z"/><path d="M14.05,87.78a1.13,1.13,0,0,0,.09.52.54.54,0,0,0,.29.24l-.11.36a.87.87,0,0,1-.49-.24,1,1,0,0,1-.23-.54,1.55,1.55,0,0,1-1.43.78,1.45,1.45,0,0,1-1.05-.37,1.37,1.37,0,0,1-.38-1,1.31,1.31,0,0,1,.51-1.1,2.22,2.22,0,0,1,1.4-.39h.88v-.45a1.13,1.13,0,0,0-.24-.8,1.12,1.12,0,0,0-.82-.25,3.82,3.82,0,0,0-1.25.26l-.14-.39a4.12,4.12,0,0,1,1.46-.31,1.32,1.32,0,0,1,1.51,1.47Zm-1.79.71a1.4,1.4,0,0,0,1.27-.82V86.4h-.8c-1,0-1.44.37-1.44,1.1a.89.89,0,0,0,1,1Z"/><path d="M19.77,84.19l.41,4.61h-.5l-.24-2.69c0-.43-.06-.9-.07-1.4l-1.29,3.52H17.6l-1.25-3.52c0,.5,0,1-.06,1.4l-.23,2.69h-.49L16,84.19h.65l1.22,3.52,1.26-3.52Z"/><path d="M23.3,84.09a1.76,1.76,0,0,1,1.44.63,3.28,3.28,0,0,1,0,3.53,1.76,1.76,0,0,1-1.44.65,1.73,1.73,0,0,1-1.43-.64,2.75,2.75,0,0,1-.51-1.76,2.71,2.71,0,0,1,.52-1.76A1.75,1.75,0,0,1,23.3,84.09Zm0,.44a1.21,1.21,0,0,0-1,.5,2.51,2.51,0,0,0-.37,1.47A2.47,2.47,0,0,0,22.26,88a1.19,1.19,0,0,0,1,.51A1.23,1.23,0,0,0,24.34,88a2.43,2.43,0,0,0,.37-1.48A2.5,2.5,0,0,0,24.35,85,1.23,1.23,0,0,0,23.3,84.53Z"/><path d="M28.66,84.09a1.41,1.41,0,0,1,1.25.63,3.78,3.78,0,0,1,0,3.52,1.5,1.5,0,0,1-1.3.66,1.6,1.6,0,0,1-1.32-.64v2.28l-.51.07V84.19h.44l0,.67A1.66,1.66,0,0,1,28.66,84.09Zm-.18,4.38c.87,0,1.3-.67,1.3-2s-.4-2-1.22-2a1.62,1.62,0,0,0-1.3.79v2.45A1.4,1.4,0,0,0,28.48,88.47Z"/><path d="M34.68,88.8V86.63H32.39V88.8h-.52V84.19h.52v2h2.29v-2h.51V88.8Z"/><path d="M39.92,87.78a1.11,1.11,0,0,0,.1.52.54.54,0,0,0,.29.24l-.11.36a.87.87,0,0,1-.49-.24.93.93,0,0,1-.23-.54,1.55,1.55,0,0,1-1.43.78,1.45,1.45,0,0,1-1-.37,1.37,1.37,0,0,1-.38-1,1.31,1.31,0,0,1,.51-1.1,2.22,2.22,0,0,1,1.4-.39h.88v-.45a.9.9,0,0,0-1.06-1,3.93,3.93,0,0,0-1.26.26L37,84.4a4.08,4.08,0,0,1,1.46-.31,1.31,1.31,0,0,1,1.5,1.47Zm-1.79.71a1.4,1.4,0,0,0,1.28-.82V86.4h-.8c-1,0-1.44.37-1.44,1.1a1,1,0,0,0,.25.73A1,1,0,0,0,38.13,88.49Z"/><path d="M43.23,84.19h1.46V88.8h-.52V86.9H42.94l-1.07,1.9H41.3l1.15-2A1.31,1.31,0,0,1,42,84.54,2,2,0,0,1,43.23,84.19Zm-.08,2.3h1V84.61h-1c-.78,0-1.17.3-1.17.93S42.42,86.49,43.15,86.49Z"/><path d="M52.09,84.19l-1.44,2.14,1.66,2.47h-.6l-1.5-2.25h-.68V88.8H49V84.19h.51v2h.69l1.31-2Z"/><path d="M55.32,84.09a1.41,1.41,0,0,1,1.26.63A3.19,3.19,0,0,1,57,86.47a3.07,3.07,0,0,1-.45,1.77,1.48,1.48,0,0,1-1.3.66,1.57,1.57,0,0,1-1.31-.64v2.28l-.52.07V84.19h.45l0,.67A1.68,1.68,0,0,1,55.32,84.09Zm-.18,4.38c.87,0,1.31-.67,1.31-2s-.41-2-1.23-2a1.6,1.6,0,0,0-1.29.79v2.45A1.39,1.39,0,0,0,55.14,88.47Z"/><path d="M60.12,84.09a1.76,1.76,0,0,1,1.44.63,3.28,3.28,0,0,1,0,3.53,1.92,1.92,0,0,1-2.87,0,2.75,2.75,0,0,1-.51-1.76,2.71,2.71,0,0,1,.52-1.76A1.75,1.75,0,0,1,60.12,84.09Zm0,.44a1.21,1.21,0,0,0-1,.5,2.51,2.51,0,0,0-.37,1.47A2.47,2.47,0,0,0,59.08,88a1.2,1.2,0,0,0,1,.51,1.22,1.22,0,0,0,1-.51,2.42,2.42,0,0,0,.38-1.48A2.49,2.49,0,0,0,61.17,85,1.21,1.21,0,0,0,60.12,84.53Z"/><path d="M68.72,84.19V88.8H63.57V84.19h.5v4.18H65.9V84.19h.49v4.18h1.83V84.19Z"/><path d="M73.67,84.19l-1.45,2.14,1.67,2.47h-.6l-1.5-2.25H71.1V88.8h-.51V84.19h.51v2h.7l1.3-2Z"/><path d="M77.72,87.78a1,1,0,0,0,.1.52.54.54,0,0,0,.29.24L78,88.9a.87.87,0,0,1-.49-.24.93.93,0,0,1-.23-.54,1.55,1.55,0,0,1-1.43.78,1.43,1.43,0,0,1-1-.37,1.37,1.37,0,0,1-.38-1,1.33,1.33,0,0,1,.5-1.1A2.27,2.27,0,0,1,76.33,86h.88v-.45a.9.9,0,0,0-1.06-1,3.93,3.93,0,0,0-1.26.26l-.13-.39a4.08,4.08,0,0,1,1.46-.31,1.31,1.31,0,0,1,1.5,1.47Zm-1.79.71a1.4,1.4,0,0,0,1.28-.82V86.4h-.8c-1,0-1.45.37-1.45,1.1a1,1,0,0,0,.26.73A1,1,0,0,0,75.93,88.49Z"/></g></g></svg>