<svg xmlns="http://www.w3.org/2000/svg" viewBox="0 0 113.6 41.8"><defs><style>.cls-1{fill:none;stroke:#000;stroke-miterlimit:10;}.cls-2{font-size:7.92px;font-family:FiraSans-Light, Fira Sans;font-weight:300;}.cls-3{letter-spacing:-0.01em;}.cls-4{letter-spacing:-0.02em;}</style></defs><g id="Layer_2" data-name="Layer 2"><g id="Layer_1-2" data-name="Layer 1"><circle class="cls-1" cx="20.32" cy="20.39" r="19.82"/><path d="M53.1,2.43l.8,11.14H50.65l-.08-4a40.37,40.37,0,0,1,.11-4.55l-1.31,7.38H46.25L44.84,5.07a38.21,38.21,0,0,1,.21,4.53l-.08,4H41.72l.8-11.14h4.06l1.28,7.22L49,2.43Z" transform="translate(0 -2.43)"/><path d="M60,4.75a2.75,2.75,0,0,1,.87.15L60.36,8a3,3,0,0,0-.78-.13,1.23,1.23,0,0,0-1,.47A3.58,3.58,0,0,0,58,9.68v3.89H54.81V5h2.77l.25,1.6a3,3,0,0,1,.87-1.36A1.92,1.92,0,0,1,60,4.75Z" transform="translate(0 -2.43)"/><path d="M68.2,10.8a1.54,1.54,0,0,0,.11.66.7.7,0,0,0,.4.33l-.64,2a4.08,4.08,0,0,1-1.41-.32,2.16,2.16,0,0,1-.89-.86,2.9,2.9,0,0,1-2.58,1.25,2.83,2.83,0,0,1-2-.76,2.61,2.61,0,0,1-.77-2,2.52,2.52,0,0,1,1-2.18,5.29,5.29,0,0,1,3.07-.75h.61V8a1.13,1.13,0,0,0-.25-.86,1.54,1.54,0,0,0-1-.23,7.08,7.08,0,0,0-2.21.45l-.69-2a8.94,8.94,0,0,1,3.38-.68,4.49,4.49,0,0,1,2.93.78,3,3,0,0,1,.91,2.38Zm-4,.86a1.11,1.11,0,0,0,.94-.51V9.89h-.33c-.88,0-1.32.32-1.32,1a.86.86,0,0,0,.2.59A.64.64,0,0,0,64.17,11.66Z" transform="translate(0 -2.43)"/><path d="M79.58,4.7a2,2,0,0,1,1.57.68,2.76,2.76,0,0,1,.6,1.88v6.31H78.58V7.84c0-.55-.14-.83-.43-.83s-.62.28-.88.85v5.71H74.1V7.84c0-.55-.14-.83-.43-.83s-.62.28-.88.85v5.71H69.62V5h2.77l.23.87A3.07,3.07,0,0,1,75.1,4.7,1.9,1.9,0,0,1,77,5.94,3.17,3.17,0,0,1,79.58,4.7Z" transform="translate(0 -2.43)"/><path d="M87,4.7a4.3,4.3,0,0,1,3.22,1.2,4.69,4.69,0,0,1,1.18,3.41,4.64,4.64,0,0,1-1.19,3.34A4.26,4.26,0,0,1,87,13.89a4.32,4.32,0,0,1-3.23-1.2,4.69,4.69,0,0,1-1.17-3.41A4.64,4.64,0,0,1,83.8,5.94,4.26,4.26,0,0,1,87,4.7Zm.88,2.81A.92.92,0,0,0,87,7a.91.91,0,0,0-.88.54,4,4,0,0,0-.28,1.76,4.14,4.14,0,0,0,.28,1.8.91.91,0,0,0,.88.54.94.94,0,0,0,.88-.55,4.21,4.21,0,0,0,.27-1.76A4.33,4.33,0,0,0,87.9,7.51Z" transform="translate(0 -2.43)"/><path d="M97.54,4.75a2.75,2.75,0,0,1,.87.15L97.91,8a3,3,0,0,0-.78-.13,1.23,1.23,0,0,0-1,.47,3.74,3.74,0,0,0-.55,1.39v3.89H92.36V5h2.77l.25,1.6a3,3,0,0,1,.87-1.36A1.92,1.92,0,0,1,97.54,4.75Z" transform="translate(0 -2.43)"/><path d="M46.26,18.11a5.69,5.69,0,0,1,4.12,1.52l-1.46,1.71a3.79,3.79,0,0,0-2.38-.89c-.8,0-1.2.26-1.2.8a.7.7,0,0,0,.37.64,8.89,8.89,0,0,0,1.63.62,5.8,5.8,0,0,1,2.53,1.41,3.31,3.31,0,0,1,.78,2.32,3.2,3.2,0,0,1-1.27,2.64,5.34,5.34,0,0,1-3.42,1,6.19,6.19,0,0,1-4.48-1.68l1.62-1.78a4.08,4.08,0,0,0,2.73,1.09,1.61,1.61,0,0,0,1-.28.88.88,0,0,0,.35-.73.91.91,0,0,0-.36-.77,4.85,4.85,0,0,0-1.44-.62,6.15,6.15,0,0,1-2.71-1.46,3.11,3.11,0,0,1-.77-2.14A3,3,0,0,1,43.16,19,5,5,0,0,1,46.26,18.11Z" transform="translate(0 -2.43)"/><path d="M59,26.8a1.54,1.54,0,0,0,.11.66.7.7,0,0,0,.4.33l-.64,2a4,4,0,0,1-1.4-.32,2.18,2.18,0,0,1-.9-.86,2.88,2.88,0,0,1-2.58,1.25,2.83,2.83,0,0,1-2-.76,2.65,2.65,0,0,1-.77-2,2.52,2.52,0,0,1,1-2.18,5.3,5.3,0,0,1,3.08-.75h.6V24a1.13,1.13,0,0,0-.25-.86,1.54,1.54,0,0,0-1-.23,7.13,7.13,0,0,0-2.21.45l-.68-2a8.9,8.9,0,0,1,3.37-.68,4.47,4.47,0,0,1,2.93.78A3,3,0,0,1,59,23.86Zm-4,.86a1.11,1.11,0,0,0,.94-.51V25.89h-.33c-.88,0-1.31.32-1.31,1a.85.85,0,0,0,.19.59A.66.66,0,0,0,54.92,27.66Z" transform="translate(0 -2.43)"/><path d="M65.56,20.75a2.64,2.64,0,0,1,.86.15L65.93,24a3,3,0,0,0-.79-.13,1.21,1.21,0,0,0-1,.47,3.73,3.73,0,0,0-.56,1.39v3.89H60.38V21h2.76l.26,1.6a3,3,0,0,1,.86-1.36A2,2,0,0,1,65.56,20.75Z" transform="translate(0 -2.43)"/><path d="M73.77,26.8a1.4,1.4,0,0,0,.11.66.7.7,0,0,0,.4.33l-.64,2a4,4,0,0,1-1.41-.32,2.16,2.16,0,0,1-.89-.86,2.9,2.9,0,0,1-2.58,1.25,2.83,2.83,0,0,1-2-.76,2.62,2.62,0,0,1-.78-2A2.52,2.52,0,0,1,67,25a5.27,5.27,0,0,1,3.07-.75h.61V24a1.13,1.13,0,0,0-.26-.86,1.51,1.51,0,0,0-1-.23,7,7,0,0,0-2.21.45l-.69-2a8.94,8.94,0,0,1,3.38-.68,4.49,4.49,0,0,1,2.93.78,3,3,0,0,1,.91,2.38Zm-4,.86a1.12,1.12,0,0,0,.94-.51V25.89h-.34c-.87,0-1.31.32-1.31,1a.91.91,0,0,0,.19.59A.67.67,0,0,0,69.74,27.66Z" transform="translate(0 -2.43)"/><path d="M80.15,27.18l1,2a4.35,4.35,0,0,1-2.56.74q-3.11,0-3.11-3.47V23.17h-1V21h1V19.23l3.17-.37V21H80.6l-.32,2.15h-1.6v3.21c0,.69.22,1,.67,1A1.6,1.6,0,0,0,80.15,27.18Z" transform="translate(0 -2.43)"/><path d="M85.29,20.7a4.3,4.3,0,0,1,3.22,1.2,4.65,4.65,0,0,1,1.18,3.41,4.64,4.64,0,0,1-1.19,3.34,4.26,4.26,0,0,1-3.21,1.24,4.32,4.32,0,0,1-3.23-1.2,4.69,4.69,0,0,1-1.17-3.41,4.64,4.64,0,0,1,1.18-3.34A4.26,4.26,0,0,1,85.29,20.7Zm.88,2.81a1,1,0,0,0-1.76,0,4.21,4.21,0,0,0-.27,1.76,4.33,4.33,0,0,0,.27,1.8.91.91,0,0,0,.88.54.93.93,0,0,0,.88-.55,4.21,4.21,0,0,0,.27-1.76A4.33,4.33,0,0,0,86.17,23.51Z" transform="translate(0 -2.43)"/><path d="M98.46,21l-2.55,8.55H92.17L89.56,21H93l1.07,6.26L95.26,21Z" transform="translate(0 -2.43)"/><text class="cls-2" transform="translate(41.53 39.03)">М<tspan class="cls-3" x="6.1" y="0">р</tspan><tspan x="10.62" y="0">аморная крош</tspan><tspan class="cls-4" x="64" y="0">к</tspan><tspan x="67.83" y="0">а</tspan></text></g></g></svg>