<svg version="1.1" id="Layer_1" xmlns="http://www.w3.org/2000/svg" xmlns:xlink="http://www.w3.org/1999/xlink" x="0px" y="0px"
	 viewBox="0 0 32 32" style="enable-background:new 0 0 32 32;" xml:space="preserve" fill="currentcolor">
<path class="st0" d="M16,2C8.3,2,2,8.3,2,16c0,7.7,6.3,14,14,14s14-6.3,14-14C30,8.3,23.7,2,16,2z M21.6,21.6
	c-0.3,0.3-0.7,0.4-1.1,0.4c-0.4,0-0.8-0.1-1.1-0.4L15,17.2c-0.2-0.2-0.4-0.5-0.4-0.8c0,0,0,0,0,0c-0.1-0.2-0.1-0.4-0.1-0.6V8.3
	c0-0.8,0.7-1.5,1.5-1.5c0.8,0,1.5,0.7,1.5,1.5v7l4.1,4.1C22.2,20.1,22.2,21,21.6,21.6z"/>
</svg>
