<svg width="49" height="49" viewBox="0 0 49 49" fill="currentcolor" xmlns="http://www.w3.org/2000/svg">
<g clip-path="url(#clip0)">
<path d="M41.1044 10.9963H35.5249C33.7353 10.9963 32.2902 9.53203 32.2902 7.73281V2.10547"/>
<path d="M37.9749 47.5645H9.71372C7.61782 47.5645 5.91431 45.8609 5.91431 43.765V33.3525H7.25415V43.765C7.25415 45.124 8.35474 46.2246 9.71372 46.2246H37.9749C39.3338 46.2246 40.4344 45.124 40.4344 43.765V10.9006L32.6633 2.77539H9.71372C8.35474 2.77539 7.25415 3.87598 7.25415 5.23496V16.0111H5.91431V5.23496C5.91431 3.13906 7.61782 1.43555 9.71372 1.43555H33.2375L41.7743 10.3646V43.7746C41.7743 45.8609 40.0708 47.5645 37.9749 47.5645Z"/>
<path d="M46.1768 42.8559H19.4756C18.2314 42.8559 17.2266 41.8414 17.2266 40.6068V30.826C17.2266 29.5818 18.241 28.577 19.4756 28.577H46.1768C47.4209 28.577 48.4258 29.5914 48.4258 30.826V40.6068C48.4258 41.8414 47.4113 42.8559 46.1768 42.8559ZM19.4756 29.9168C18.9684 29.9168 18.5664 30.3283 18.5664 30.826V40.6068C18.5664 41.1141 18.9779 41.516 19.4756 41.516H46.1768C46.684 41.516 47.0859 41.1045 47.0859 40.6068V30.826C47.0859 30.3187 46.6744 29.9168 46.1768 29.9168H19.4756Z"/>
<path d="M47.3922 29.2469H41.1045V41.6117H47.3922V29.2469Z"/>
<path d="M10.3263 16.9299V15.992C10.3263 15.7432 10.1253 15.5422 9.87647 15.5422H3.29209C3.04326 15.5422 2.84229 15.7432 2.84229 15.992V16.9299H10.3263Z"/>
<path d="M10.3263 17.9539H2.84229V18.5377H10.3263V17.9539Z"/>
<path d="M12.1447 26.7777H10.7761C10.5273 26.7777 10.3263 26.5768 10.3263 26.3279V20.3943H2.84231V26.3279C2.84231 26.5768 2.64133 26.7777 2.3925 26.7777H1.02395C0.660278 26.7777 0.449731 27.1797 0.660278 27.4764L6.22063 35.525C6.40246 35.7834 6.77571 35.7834 6.95754 35.525L12.5179 27.4764C12.7189 27.1797 12.5083 26.7777 12.1447 26.7777Z"/>
<path d="M22.0404 36.5203V39.0564H20.9207V32.3572H23.4855C24.2224 32.3572 24.8062 32.5486 25.2177 32.9314C25.6292 33.3143 25.8494 33.8119 25.8494 34.434C25.8494 35.0656 25.6388 35.5633 25.2177 35.9461C24.7966 36.3289 24.2224 36.5107 23.4855 36.5107H22.0404V36.5203ZM22.0404 35.6303H23.4855C23.897 35.6303 24.2128 35.5154 24.4234 35.2953C24.6339 35.0752 24.7392 34.7977 24.7392 34.4531C24.7392 34.1086 24.6339 33.8311 24.4234 33.6014C24.2128 33.3717 23.9066 33.2568 23.4855 33.2568H22.0404V35.6303Z"/>
<path d="M27.1989 39.066V32.3668H29.4096C30.2614 32.3668 30.9504 32.6348 31.4864 33.1611C32.0223 33.6875 32.2807 34.3766 32.2807 35.2092V36.2236C32.2807 37.0658 32.0127 37.7453 31.4864 38.2717C30.9504 38.798 30.2614 39.066 29.4096 39.066H27.1989ZM28.3186 33.2664V38.176H29.4096C29.9455 38.176 30.3762 37.9941 30.692 37.6305C31.0078 37.2668 31.1705 36.7978 31.1705 36.2332V35.2092C31.1705 34.6445 31.0078 34.1851 30.692 33.8215C30.3762 33.4578 29.9455 33.276 29.4096 33.276H28.3186V33.2664Z"/>
<path d="M37.6113 36.2045H34.9124V39.066H33.7927V32.3668H38.0802V33.2664H34.9124V35.3144H37.6113V36.2045Z"/>
</g>
<defs>
</svg>
