<svg width="31" height="31" viewBox="0 0 31 31" fill="currentcolor" xmlns="http://www.w3.org/2000/svg">
<g clip-path="url(#clip0)">
<path d="M25.5021 25.3995L25.4704 25.0039C25.3923 24.0785 24.6681 22.9558 23.8595 22.5087L20.8687 20.8474C20.0574 20.3979 18.7395 20.412 17.9477 20.892L16.5033 21.7678C12.5664 19.5953 10.0707 15.4789 9.96605 10.9848L11.4105 10.109C12.2024 9.62887 12.8238 8.46846 12.8004 7.54124L12.7123 4.12002C12.6885 3.19439 12.0263 2.03273 11.2428 1.53916L10.907 1.32645C10.1218 0.83248 8.83212 0.821342 8.04032 1.30142L5.87928 2.61304C5.49368 2.84545 5.07936 3.67893 5.07857 3.68215C3.66756 9.17683 4.52696 15.0145 7.46903 19.867C10.4039 24.7075 15.1635 28.1607 20.6684 29.4608C20.6972 29.4678 21.6525 29.4953 22.0382 29.2629L24.1988 27.9528C24.9906 27.4728 25.577 26.3241 25.5021 25.3995Z" fill="#676767"/>
</g>
</svg>
